<svg width="27" height="26" viewBox="0 0 27 26" fill="none" xmlns="http://www.w3.org/2000/svg">
<path d="M10.0007 12.9999L12.334 15.3333L17.584 10.0833M20.3854 4.83151C20.6256 5.41254 21.0867 5.87438 21.6674 6.1155L23.7034 6.95889C24.2845 7.19958 24.7461 7.66124 24.9868 8.24232C25.2275 8.8234 25.2275 9.47629 24.9868 10.0574L24.1441 12.092C23.9033 12.6734 23.9029 13.3269 24.1448 13.908L24.9861 15.942C25.1054 16.2298 25.1669 16.5383 25.1669 16.8499C25.167 17.1614 25.1056 17.4699 24.9864 17.7578C24.8672 18.0456 24.6924 18.3071 24.4721 18.5274C24.2517 18.7477 23.9902 18.9223 23.7023 19.0415L21.6677 19.8843C21.0867 20.1245 20.6249 20.5857 20.3838 21.1663L19.5404 23.2024C19.2997 23.7835 18.8381 24.2452 18.257 24.4859C17.676 24.7266 17.0231 24.7266 16.4421 24.4859L14.4075 23.6431C13.8264 23.403 13.1738 23.4035 12.5931 23.6444L10.557 24.4866C9.97629 24.7268 9.324 24.7266 8.74341 24.4861C8.16283 24.2456 7.70144 23.7845 7.4606 23.204L6.61699 21.1673C6.37675 20.5862 5.91562 20.1244 5.33497 19.8833L3.29893 19.0399C2.71812 18.7993 2.25662 18.3379 2.01585 17.7572C1.77508 17.1765 1.77475 16.5239 2.01494 15.9429L2.85769 13.9082C3.09778 13.3271 3.09729 12.6745 2.85633 12.0937L2.01479 10.0562C1.89547 9.76837 1.83403 9.45988 1.83398 9.14832C1.83393 8.83677 1.89527 8.52826 2.01449 8.24042C2.13372 7.95259 2.30848 7.69106 2.52881 7.4708C2.74914 7.25053 3.01071 7.07584 3.29858 6.95671L5.33316 6.11392C5.91367 5.87388 6.37522 5.41332 6.6165 4.83332L7.45986 2.7972C7.70054 2.21612 8.16219 1.75446 8.74324 1.51377C9.3243 1.27308 9.97716 1.27308 10.5582 1.51377L12.5928 2.35655C13.1739 2.59665 13.8265 2.59616 14.4072 2.35519L16.4441 1.51508C17.0251 1.27452 17.6778 1.27457 18.2588 1.51521C18.8397 1.75585 19.3013 2.21739 19.542 2.79831L20.3856 4.83504L20.3854 4.83151Z" stroke="#4DB24D" stroke-width="2" stroke-linecap="round" stroke-linejoin="round"/>
</svg>
