<svg width="16" height="16" viewBox="0 0 16 16" fill="none" xmlns="http://www.w3.org/2000/svg">
<path d="M9.53477 0.87127L6.42377 0.86377H6.42227C3.14177 0.86377 0.572266 3.43402 0.572266 6.71527C0.572266 9.78877 2.96177 12.1198 6.17102 12.2428V15.1138C6.17102 15.1948 6.20402 15.3283 6.26102 15.416C6.36752 15.5848 6.54902 15.6763 6.73502 15.6763C6.83852 15.6763 6.94277 15.6478 7.03652 15.5878C7.23452 15.4618 11.8913 12.4828 13.1025 11.4583C14.529 10.2508 15.3825 8.48077 15.3848 6.72427V6.71152C15.3803 3.43627 12.8123 0.871269 9.53477 0.870519V0.87127ZM12.375 10.6003C11.5245 11.3203 8.72852 13.154 7.29602 14.0825V11.6923C7.29602 11.3818 7.04477 11.1298 6.73352 11.1298H6.43652C3.69152 11.1298 1.69802 9.27277 1.69802 6.71527C1.69802 4.06477 3.77402 1.98877 6.42302 1.98877L9.53327 1.99627H9.53477C12.1838 1.99627 14.2598 4.07077 14.2613 6.71827C14.259 8.15077 13.5548 9.60127 12.3758 10.6003H12.375Z" fill="#EDEFF2"/>
</svg>
