<svg width="21" height="26" viewBox="0 0 21 26" fill="none" xmlns="http://www.w3.org/2000/svg">
<path d="M11.666 7.74993L8.16602 11.2499L12.8327 13.5833L9.33268 17.0833M19.8327 12.9999C19.8327 18.7264 13.5864 22.8914 11.3137 24.2173C11.0554 24.368 10.9262 24.4433 10.744 24.4824C10.6025 24.5127 10.3962 24.5127 10.2547 24.4824C10.0725 24.4433 9.94332 24.368 9.68503 24.2173C7.4123 22.8914 1.16602 18.7264 1.16602 12.9999V7.42047C1.16602 6.4877 1.16602 6.02132 1.31857 5.62042C1.45334 5.26626 1.67233 4.95025 1.95662 4.69972C2.27843 4.41611 2.71511 4.25235 3.58849 3.92484L9.84392 1.57905C10.0865 1.4881 10.2077 1.44262 10.3325 1.42459C10.4432 1.4086 10.5555 1.4086 10.6662 1.42459C10.791 1.44262 10.9122 1.4881 11.1548 1.57905L17.4102 3.92484C18.2836 4.25235 18.7203 4.41611 19.0421 4.69972C19.3264 4.95025 19.5454 5.26626 19.6801 5.62042C19.8327 6.02132 19.8327 6.4877 19.8327 7.42047V12.9999Z" stroke="#4DB24D" stroke-width="2" stroke-linecap="round" stroke-linejoin="round"/>
</svg>
