<svg width="114" height="32" viewBox="0 0 114 32" fill="none" xmlns="http://www.w3.org/2000/svg">
<path d="M32.7226 16C32.7226 24.8366 25.3974 32 16.3613 32C7.32521 32 0 24.8366 0 16C0 7.16344 7.32521 0 16.3613 0C25.3974 0 32.7226 7.16344 32.7226 16Z" fill="#1E4F70"/>
<path d="M21.7107 11.0001L28.0672 5.35116C24.661 1.09625 22.5032 5.19088 21.7107 11.0001L16.3652 15.7505C14.969 17.4321 17.8921 17.6305 21.4022 17.9312C21.6919 25.0316 23.8539 31.0936 28.0672 25.9568C33.6846 19.1081 26.8392 18.397 21.4022 17.9312C21.3077 15.6137 21.4126 13.1855 21.7107 11.0001Z" fill="url(#paint0_radial_609_629)"/>
<path d="M11.0119 11.0001L4.65539 5.35116C8.06161 1.09625 10.2194 5.19088 11.0119 11.0001L16.3574 15.7505C17.7536 17.4321 14.8305 17.6305 11.3204 17.9312C11.0307 25.0316 8.86868 31.0936 4.6554 25.9568C-0.961943 19.1081 5.88338 18.397 11.3204 17.9312C11.4149 15.6137 11.31 13.1855 11.0119 11.0001Z" fill="url(#paint1_radial_609_629)"/>
<path d="M42.815 24V5.40631H46.9483L52.6524 17.3171L58.3565 5.40631H62.4899V24H59.1005V11.0114L54.0853 21.4669H51.192L46.1768 11.0114V24H42.815Z" fill="black"/>
<path d="M66.8103 7.40042V4.19368H70.1997V7.40042H66.8103ZM66.893 24V9.85263H70.117V24H66.893Z" fill="black"/>
<path d="M74.2394 24V9.85263H82.1755C85.0597 9.85263 86.5018 11.2719 86.5018 14.1103V24H83.2778V13.8408C83.2778 13.0145 82.8553 12.6013 82.0102 12.6013H77.4635V24H74.2394Z" fill="black"/>
<path d="M90.4098 19.7423V5.40631H93.6338V9.85263H98.5663V12.6013H93.6338V20.0118C93.6338 20.8382 94.0564 21.2514 94.9014 21.2514H98.8419V22.9491L97.3814 24H94.7636C91.8611 24 90.4098 22.5808 90.4098 19.7423Z" fill="black"/>
<path d="M100.635 23.4611L105.485 16.832L100.773 10.3916L101.049 9.85263H104.025L107.304 14.4876L110.611 9.85263H113.587L113.862 10.3916L109.15 16.832L114 23.4611L113.752 24H110.748L107.304 19.1764L103.859 24H100.883L100.635 23.4611Z" fill="black"/>
<defs>
<radialGradient id="paint0_radial_609_629" cx="0" cy="0" r="1" gradientUnits="userSpaceOnUse" gradientTransform="translate(82.0485 15.7031) rotate(90) scale(13.0195 25.062)">
<stop stop-color="#80ED99"/>
<stop offset="0.904545" stop-color="#80ED99"/>
</radialGradient>
<radialGradient id="paint1_radial_609_629" cx="0" cy="0" r="1" gradientUnits="userSpaceOnUse" gradientTransform="translate(82.0485 15.7031) rotate(90) scale(13.0195 25.062)">
<stop stop-color="#80ED99"/>
<stop offset="0.904545" stop-color="#80ED99"/>
</radialGradient>
</defs>
</svg>
