<svg width="14" height="13" viewBox="0 0 14 13" fill="none" xmlns="http://www.w3.org/2000/svg">
<path fill-rule="evenodd" clip-rule="evenodd" d="M7.73617 1.28468L8.95445 3.71851C9.07384 3.95745 9.30431 4.12313 9.57157 4.16147L12.2969 4.55375C12.9702 4.65097 13.2382 5.46704 12.7509 5.93464L10.7801 7.8283C10.5864 8.01452 10.4983 8.28221 10.5441 8.5451L11.0092 11.2186C11.1237 11.8799 10.4198 12.3845 9.818 12.0716L7.38214 10.8085C7.14335 10.6845 6.85735 10.6845 6.61786 10.8085L4.182 12.0716C3.58015 12.3845 2.87626 11.8799 2.9915 11.2186L3.4559 8.5451C3.50171 8.28221 3.41355 8.01452 3.21988 7.8283L1.24912 5.93464C0.76181 5.46704 1.02976 4.65097 1.70311 4.55375L4.42843 4.16147C4.69569 4.12313 4.92685 3.95745 5.04625 3.71851L6.26383 1.28468C6.5651 0.682898 7.4349 0.682898 7.73617 1.28468Z" stroke="#1E4F70" stroke-width="1.5" stroke-linecap="round" stroke-linejoin="round"/>
</svg>
